<?xml version="1.0" standalone="no"?>
<!DOCTYPE svg PUBLIC "-//W3C//DTD SVG 20010904//EN"
 "http://www.w3.org/TR/2001/REC-SVG-20010904/DTD/svg10.dtd">
<svg version="1.0" xmlns="http://www.w3.org/2000/svg"
 width="64.000000pt" height="64.000000pt" viewBox="0 0 64.000000 64.000000"
 preserveAspectRatio="xMidYMid meet">
<metadata>
Created by potrace 1.16, written by Peter Selinger 2001-2019
</metadata>
<g transform="translate(0.000000,64.000000) scale(0.100000,-0.100000)"
fill="#000000" stroke="none">
<path d="M4 626 c-3 -8 -4 -25 -2 -38 3 -23 5 -23 148 -26 182 -3 192 -1 188
41 l-3 32 -163 3 c-135 2 -163 0 -168 -12z"/>
<path d="M463 623 c-10 -3 -13 -62 -13 -246 l0 -241 -33 32 c-38 37 -71 41
-88 11 -10 -19 -3 -29 67 -100 43 -44 82 -79 87 -79 5 0 43 32 84 72 59 58 73
77 71 98 -5 39 -43 39 -84 -1 l-34 -33 0 241 c0 210 -2 242 -16 247 -18 7 -23
7 -41 -1z"/>
<path d="M0 465 l0 -36 148 3 147 3 3 33 3 32 -150 0 -151 0 0 -35z"/>
<path d="M7 364 c-4 -4 -7 -20 -7 -36 l0 -28 131 0 130 0 -3 33 -3 32 -121 3
c-66 1 -123 -1 -127 -4z"/>
<path d="M0 185 l0 -35 111 0 110 0 -3 33 -3 32 -107 3 -108 3 0 -36z"/>
</g>
</svg>
