<?xml version="1.0" standalone="no"?>
<!DOCTYPE svg PUBLIC "-//W3C//DTD SVG 20010904//EN"
 "http://www.w3.org/TR/2001/REC-SVG-20010904/DTD/svg10.dtd">
<svg version="1.0" xmlns="http://www.w3.org/2000/svg"
 width="64.000000pt" height="64.000000pt" viewBox="0 0 64.000000 64.000000"
 preserveAspectRatio="xMidYMid meet">
<metadata>
Created by potrace 1.16, written by Peter Selinger 2001-2019
</metadata>
<g transform="translate(0.000000,64.000000) scale(0.100000,-0.100000)"
fill="#000000" stroke="none">
<path d="M360 485 c-155 -154 -156 -155 -173 -222 -9 -38 -17 -74 -17 -80 0
-18 38 -16 112 7 60 18 71 27 211 168 141 143 147 150 147 189 0 34 -6 46 -31
67 -60 51 -75 43 -249 -129z m155 25 l29 -30 -109 -110 -109 -110 -33 32 -33
32 107 108 c59 59 110 108 113 108 4 0 19 -14 35 -30z"/>
<path d="M26 559 l-26 -20 0 -248 c0 -246 0 -248 23 -269 23 -21 30 -22 284
-22 l262 0 20 26 c18 23 21 41 21 120 0 87 -1 94 -20 94 -18 0 -20 -7 -20 -88
0 -55 -4 -92 -12 -100 -17 -17 -489 -17 -506 0 -17 17 -17 459 0 476 8 8 45
12 100 12 81 0 88 2 88 20 0 19 -7 20 -94 20 -79 0 -97 -3 -120 -21z"/>
</g>
</svg>
