<?xml version="1.0" standalone="no"?>
<!DOCTYPE svg PUBLIC "-//W3C//DTD SVG 20010904//EN"
 "http://www.w3.org/TR/2001/REC-SVG-20010904/DTD/svg10.dtd">
<svg version="1.0" xmlns="http://www.w3.org/2000/svg"
 width="64.000000pt" height="64.000000pt" viewBox="0 0 64.000000 64.000000"
 preserveAspectRatio="xMidYMid meet">
<metadata>
Created by potrace 1.16, written by Peter Selinger 2001-2019
</metadata>
<g transform="translate(0.000000,64.000000) scale(0.100000,-0.100000)"
fill="#000000" stroke="none">
<path d="M72 620 c-67 -41 -72 -60 -72 -300 0 -197 2 -218 20 -248 41 -67 60
-72 300 -72 240 0 259 5 300 72 18 30 20 51 20 248 0 197 -2 218 -20 248 -41
67 -60 72 -300 72 -197 0 -218 -2 -248 -20z m453 -52 c49 -22 55 -51 55 -248
0 -197 -6 -226 -55 -248 -36 -16 -374 -16 -410 0 -49 22 -55 50 -55 250 1 195
6 219 51 244 32 18 376 19 414 2z"/>
<path d="M297 474 c-4 -4 -7 -33 -7 -65 l0 -58 -62 -3 c-60 -3 -63 -4 -63 -28
0 -24 3 -25 62 -28 l62 -3 3 -62 c3 -59 4 -62 28 -62 24 0 25 3 28 62 l3 62
62 3 c59 3 62 4 62 28 0 24 -3 25 -62 28 l-62 3 -3 62 c-3 54 -6 62 -23 65
-12 2 -24 0 -28 -4z"/>
</g>
</svg>
